<svg xmlns="http://www.w3.org/2000/svg" aria-hidden="true" style="position:absolute;width:0;height:0;overflow:hidden"><defs><symbol id="icon-star" viewBox="0 0 32 32"><path d="m32 13-2-2-8-1-4-7c-1-2-3-2-4 0l-3 7-9 1a2 2 0 0 0-1 4l6 6-1 8a2 2 0 0 0 3 3l7-4 8 4a2 2 0 0 0 3-3l-2-8 6-6 1-2zm-11 6v2l1 4-5-2a2 2 0 0 0-2 0l-4 2 1-4-1-2-3-4h4l2-2 2-4 2 4 2 2h5l-4 4z" style="fill:var(--color1, #4d5ae5)"/></symbol><symbol id="icon-astronaut" viewBox="0 0 32 32"><path d="m29 14-1-1h-1l-2 1-2 2-1-1a8 8 0 0 0-4-15 8 8 0 0 0-6 12H8l-3 2-2 1a2 2 0 0 0 2 4l1-1 3-1h1l-6 6-1 1a2 2 0 0 0 0 3 2 2 0 0 0 2 0l2-2 2-1 1 1-2 2-2 1a2 2 0 0 0 0 3 2 2 0 0 0 3 0l4-4 1-1 6-6h4l4-2 1-2v-2zM4 18H3v-2h2v1l-1 1zm4-2-2 1v-2l2-1v2zm17-8-1 3-4-2-1-2 1-5c3 1 5 3 5 6zM12 8a7 7 0 0 1 7-6l-1 5c-2 0-3 1-3 2l3 2 1-1 5 2a7 7 0 0 1-12-4zm6 1v1l-1-1 1-1v1zM4 26H3a1 1 0 0 1 0-1l2-1 1 1-2 1zm4 4H7a1 1 0 0 1 0-1l1-1 1 1-1 1zm4-4-2 2-1-1 2-2v-1l-2-1H8l-2 1-1-1 3-3 5 5-1 1zm8-8a1 1 0 0 0-1 0v1l-5 5-5-4 3-4a1 1 0 0 0 0-1H9v-1h4a8 8 0 0 0 7 2l3 1v2l-3-1zm4 1v-2l1-1 1 1-2 2zm4-4-1 1-1-1 1-1h1v1z"/></symbol><symbol id="icon-comp" viewBox="0 0 32 32"><path d="M2 28h25l2-1v-2l-2-2V10l3-3a2 2 0 1 0-1-1l-2 2V7l-2-2H4L2 7v16l-2 2v2l2 1zM30 5a1 1 0 1 1 0 1 1 1 0 0 1 0-1zM3 7l1-1h21l1 1v2l-1 1V8H4v13l1 1h19l1-1v-9l1-1v12H3V7zm5 7a2 2 0 1 0 1 3l2 1 1-1 4-4 3 3h1l3-3v8H5V9h18v2l-3 4-4-3h-1l-4 4h-1v-1l-2-1zm1 1a1 1 0 1 1-2 0 1 1 0 0 1 2 0zm3 9h5v1h-5v-1zM1 25l1-1h9v1l1 1h5l1-1v-1h9l1 1v2H1v-2z"/></symbol><symbol id="icon-clock" viewBox="0 0 31 32"><path d="M31 15a15 15 0 1 0-20 15l1-1 4-12a2 2 0 1 0-1-3l-5-6a1 1 0 0 0-1 1l5 5v3l-3 11a14 14 0 1 1 10 0v-2a1 1 0 0 0-1 0l-4 3a1 1 0 0 0 0 1l5 2a1 1 0 0 0 1-1l-1-2c6-2 10-8 10-14zm-16 0a1 1 0 1 1 0 1 1 1 0 0 1 0-1zm3 15 2-2v2h-2z"/></symbol><symbol id="icon-moon" viewBox="0 0 30 32"><path d="m30 22-9-8 1-5h1a2 2 0 1 0-2-1h-5L8 0H7L6 2l1 1a15 15 0 0 0 2 18v7H3c-2 0-3 1-3 2v1l1 1h24l1-1v-1l-3-2h-6v-3a15 15 0 0 0 10-1h1v1-1l2-1v-1zM22 6a1 1 0 1 1 1 2 1 1 0 0 1-1-2zm-1 4-1 3-1-1 2-2zm-1-1-2 2-1-2h3zm3 20 2 1v1H1v-1l2-1h20zm-7-2v1h-6v-1h6zm-6-1v-4c0-2 1-3 3-3s3 1 3 3v4h-6zm7-2v-2c0-2-2-4-4-4l-3 2C6 16 5 9 7 4l19 19c-3 1-6 2-9 1zm11-1L7 2l1-1 8 8 13 13-1 1z"/></symbol><symbol id="icon-facebook" viewBox="0 0 32 32"><path d="M29 0H3C1 0 0 1 0 3v26c0 2 1 3 3 3h13V18h-4v-4h4v-2c0-3 3-6 6-6h4v4h-4l-2 2v2h6l-1 4h-5v14h9c2 0 3-1 3-3V3c0-2-1-3-3-3z"/></symbol><symbol id="icon-instagram" viewBox="0 0 32 32"><path d="m16 3 10 1h-1l2 1 1 2 1 3-1 16v-1l-1 2-2 1-3 1-16-1h1l-2-1-1-2-1-3L4 6v1l1-2 2-1 3-1h6zm0-3L5 1h1C4 1 4 2 3 3S1 4 1 6L0 9a111 111 0 0 0 1 18v-1c0 2 1 2 2 3s1 2 3 2l3 1a118 118 0 0 0 18-1h-1c2 0 2-1 3-2l2-3 1-3a118 118 0 0 0-1-18v1c0-2-1-2-2-3s-1-2-3-2l-3-1h-7z"/><path d="M16 8a8 8 0 0 0 0 16 8 8 0 0 0 0-16zm0 13a5 5 0 0 1 0-10 5 5 0 0 1 0 10zM26 7a2 2 0 0 1-1 3 2 2 0 0 1-2-3 2 2 0 0 1 3 0z"/></symbol><symbol id="icon-linkedin" viewBox="0 0 32 32"><path d="M29 0H3C1 0 0 1 0 3v26c0 2 1 3 3 3h26c2 0 3-1 3-3V3c0-2-1-3-3-3zM12 26H8V12h4v14zm-2-16a2 2 0 1 1 0-4 2 2 0 1 1 0 4zm16 16h-4v-8a2 2 0 1 0-4 0v8h-4V12h4v2l4-2c2 0 4 2 4 5v9z"/></symbol><symbol id="icon-twitter" viewBox="0 0 32 32"><path d="m32 7-4 1c2-1 3-2 3-4l-4 2-4-1a7 7 0 0 0-7 7C10 12 5 9 2 5L1 8c0 3 1 5 3 6l-3-1c0 3 3 6 6 7a7 7 0 0 1-3 0c0 2 3 4 6 4a13 13 0 0 1-10 3c3 2 6 3 10 3a19 19 0 0 0 19-20l3-3z"/></symbol></defs></svg>